#!OML:ASF F:\VICON\USERDATA\INSTALL\Justin_Nancy\Justin_Nancy.ASF
:FULLY-SPECIFIED
:DEGREES
171
root 0.647179 17.6622 -15.7589 4.19567 -2.52696 -0.787532
lowerback 6.0422 -0.19878 0.0308401
upperback -0.329236 -0.151807 2.97595
thorax -3.7237 -0.0475304 3.07712
lowerneck -14.963 -4.06909 -10.7316
upperneck 20.5346 -4.4067 6.09753
head 9.31888 -2.24711 3.33703
rclavicle -1.49089e-015 1.43125e-014
rhumerus -34.2606 -6.01128 -80.8166
rradius 40.2698
rwrist 1.35556
rhand -11.3423 12.9402
rfingers 7.12502
rthumb 14.6907 -16.5193
lclavicle -1.49089e-015 1.43125e-014
lhumerus -35.1476 9.52024 84.8342
lradius 35.285
lwrist -1.2211
lhand -19.7242 22.5477
lfingers 7.12502
lthumb 6.60606 52.4246
rfemur -11.3062 4.43031 19.7061
rtibia 24.809
rfoot -12.6358 -7.53983
rtoes 7.33093
lfemur -12.7466 -3.18153 -16.859
ltibia 26.9243
lfoot -14.4588 8.19006
ltoes -2.75883
172
root 0.64412 17.6528 -15.7649 4.11686 -2.47549 -0.810004
lowerback 6.20832 -0.19317 0.0171298
upperback -0.24748 -0.143342 3.00806
thorax -3.73285 -0.0432535 3.11842
lowerneck -15.1035 -4.13206 -10.7726
upperneck 20.5709 -4.4665 6.08538
head 9.36434 -2.27753 3.33075
rclavicle 0 -1.11319e-014
rhumerus -34.2125 -5.76284 -80.9162
rradius 40.787
rwrist 1.12339
rhand -11.4945 13.1875
rfingers 7.12502
rthumb 14.5441 -16.2827
lclavicle 0 -1.11319e-014
lhumerus -35.1406 9.0762 85.0648
lradius 35.9278
lwrist -0.816894
lhand -17.6641 26.2122
lfingers 7.12502
lthumb 8.59455 56.0172
rfemur -11.3712 4.42652 19.7576
rtibia 25.0606
rfoot -12.7658 -7.63941
rtoes 7.26039
lfemur -12.9116 -3.14177 -16.8174
ltibia 27.1956
lfoot -14.4394 8.18565
ltoes -3.20687
173
root 0.643906 17.6494 -15.7681 4.11875 -2.45255 -0.846218
lowerback 6.21456 -0.180657 0.1349
upperback -0.13575 -0.121968 2.97786
thorax -3.62191 -0.036743 3.0173
lowerneck -15.4515 -4.17298 -10.6785
upperneck 20.7768 -4.49093 5.98386
head 9.49861 -2.28936 3.27546
rclavicle -3.08116e-015 -2.62396e-014
rhumerus -34.0082 -5.51063 -81.1144
rradius 41.301
rwrist 0.90947
rhand -11.5054 12.91
rfingers 7.12502
rthumb 14.5336 -16.5609
lclavicle -3.08116e-015 -2.62396e-014
lhumerus -35.0519 8.71555 85.1591
lradius 36.5095
lwrist -0.65069
lhand -16.3517 27.1749
lfingers 7.12502
lthumb 9.86089 56.924
rfemur -11.5065 4.45543 19.804
rtibia 25.3237
rfoot -12.9431 -7.71927
rtoes 7.61127
lfemur -13.0449 -3.19247 -16.7723
ltibia 27.4747
lfoot -14.6415 8.21504
ltoes -2.87535
174
root 0.642178 17.6444 -15.7728 4.17635 -2.47737 -0.969058
lowerback 6.20317 -0.16969 0.270985
upperback -0.0820535 -0.0980306 3.00834
thorax -3.56131 -0.0278128 2.9693
lowerneck -15.5085 -4.15822 -10.6895
upperneck 20.7611 -4.45768 5.97383
head 9.50071 -2.27463 3.27747
rclavicle -5.96354e-015 -1.19271e-014
rhumerus -33.9037 -5.29154 -81.2613
rradius 41.8647
rwrist 0.671031
rhand -11.5046 12.7166
rfingers 7.12502
rthumb 14.5344 -16.7543
lclavicle -5.96354e-015 -1.19271e-014
lhumerus -35.0467 8.42507 85.2387
lradius 37.1287
lwrist -0.363126
lhand -17.6537 24.0993
lfingers 7.12502
lthumb 8.6045 53.904
rfemur -11.7393 4.48778 19.9452
rtibia 25.6141
rfoot -13.0573 -7.70879
rtoes 7.57264
lfemur -13.2043 -3.10821 -16.6156
ltibia 27.7384
lfoot -14.828 8.07125
ltoes -2.34935
175
root 0.64313 17.6356 -15.7849 4.22543 -2.46945 -0.95876
lowerback 6.31391 -0.186688 0.258966
upperback -0.0769345 -0.117838 3.05284
thorax -3.61725 -0.0367264 3.02532
lowerneck -15.2989 -4.1333 -10.706
upperneck 20.4656 -4.40911 5.87639
head 9.35274 -2.26301 3.25036
rclavicle -3.97569e-016 5.56597e-015
rhumerus -33.93 -4.92906 -81.337
rradius 42.5349
rwrist 0.418133
rhand -11.4815 12.7632
rfingers 7.12502
rthumb 14.5566 -16.706
lclavicle -3.97569e-016 5.56597e-015
lhumerus -34.9848 8.21954 85.4206
lradius 37.8713
lwrist 0.175272
lhand -19.2517 21.615
lfingers 7.12502
lthumb 7.06219 51.4771
rfemur -11.9948 4.41558 19.925
rtibia 25.9047
rfoot -13.1707 -7.63613
rtoes 7.55425
lfemur -13.4894 -2.95812 -16.607
ltibia 28.0387
lfoot -14.9079 7.86716
ltoes -2.15864
176
root 0.64588 17.6255 -15.7928 4.22058 -2.39321 -0.79432
lowerback 6.53421 -0.224083 0.126749
upperback -0.121593 -0.172579 3.03807
thorax -3.78434 -0.060108 3.09272
lowerneck -15.0756 -4.11558 -10.7585
upperneck 20.2783 -4.38823 5.86718
head 9.24576 -2.25921 3.25831
rclavicle 7.25564e-015 -1.98785e-014
rhumerus -34.0075 -4.567 -81.426
rradius 43.1342
rwrist 0.258693
rhand -11.5979 12.6221
rfingers 7.12502
rthumb 14.4444 -16.8552
lclavicle 7.25564e-015 -1.98785e-014
lhumerus -35.0118 7.85576 85.6349
lradius 38.7254
lwrist 0.949092
lhand -19.2885 22.5387
lfingers 7.12502
lthumb 7.02671 52.402
rfemur -12.1923 4.2052 19.7332
rtibia 26.2103
rfoot -13.2708 -7.55971
rtoes 7.30303
lfemur -13.713 -2.77945 -16.791
ltibia 28.3684
lfoot -14.9748 7.68216
ltoes -2.38864
177
root 0.648756 17.6152 -15.7998 4.18378 -2.3552 -0.762515
lowerback 6.80594 -0.221004 0.216857
upperback -0.121629 -0.159265 2.95745
thorax -3.93827 -0.0548912 2.95949
lowerneck -15.1014 -4.13819 -10.6923
upperneck 20.2654 -4.44073 5.90084
head 9.24961 -2.27439 3.25188
rclavicle 1.19271e-015 -1.35174e-014
rhumerus -33.9841 -4.43428 -81.604
rradius 43.685
rwrist 0.0383538
rhand -11.4682 12.2986
rfingers 7.12502
rthumb 14.5694 -17.1698
lclavicle 1.19271e-015 -1.35174e-014
lhumerus -35.0088 7.43124 85.6449
lradius 39.4056
lwrist 1.39358
lhand -19.0831 22.9824
lfingers 7.12502
lthumb 7.22491 52.8391
rfemur -12.3794 4.05231 19.6882
rtibia 26.5728
rfoot -13.3924 -7.51325
rtoes 7.27836
lfemur -13.9122 -2.60121 -16.8332
ltibia 28.742
lfoot -15.1258 7.5487
ltoes -2.44489
178
root 0.653939 17.6038 -15.8093 4.13968 -2.50398 -0.860831
lowerback 7.06448 -0.155081 0.419946
upperback -0.0536973 -0.0528172 2.92344
thorax -4.0186 -0.00633473 2.80036
lowerneck -15.2099 -4.1434 -10.6344
upperneck 20.2151 -4.45665 5.93684
head 9.2526 -2.27097 3.25113
rclavicle -1.49089e-015 9.54166e-015
rhumerus -33.8983 -4.43061 -81.7274
rradius 44.3412
rwrist -0.0706151
rhand -11.1327 12.4966
rfingers 7.12502
rthumb 14.8926 -16.9481
lclavicle -1.49089e-015 9.54166e-015
lhumerus -34.9151 7.17155 85.6105
lradius 40.0185
lwrist 1.25664
lhand -17.9393 24.6914
lfingers 7.12502
lthumb 8.32889 54.5072
rfemur -12.5941 4.07397 19.7764
rtibia 26.9606
rfoot -13.4849 -7.42786
rtoes 6.89695
lfemur -14.1247 -2.51644 -16.749
ltibia 29.1509
lfoot -15.2131 7.64606
ltoes -2.32211
179
root 0.642895 17.5952 -15.8483 4.47592 -1.92025 -1.02109
lowerback 7.35042 -0.311156 0.479168
upperback -0.241057 -0.239384 3.03006
thorax -4.36594 -0.0958742 2.90368
lowerneck -15.2081 -4.10094 -10.5556
upperneck 20.2499 -4.40808 5.89202
head 9.25668 -2.24742 3.2293
rclavicle -1.71949e-014 -9.54166e-015
rhumerus -33.9677 -4.36672 -81.7502
rradius 45.0991
rwrist -0.118614
rhand -11.1495 13.0779
rfingers 7.12502
rthumb 14.8765 -16.368
lclavicle -1.71949e-014 -9.54166e-015
lhumerus -34.9035 6.89098 85.6787
lradius 40.8207
lwrist 1.09011
lhand -16.7207 28.4801
lfingers 7.12502
lthumb 9.50484 58.2458
rfemur -13.2455 3.87096 20.0237
rtibia 27.3768
rfoot -13.4731 -7.7467
rtoes 7.3207
lfemur -15.0296 -2.55588 -16.4242
ltibia 29.6223
lfoot -15.2387 7.07721
ltoes -1.93084
180
root 0.642257 17.5813 -15.8616 4.45891 -1.95506 -1.04896
lowerback 7.60553 -0.267574 0.470831
upperback -0.169592 -0.177148 3.05373
thorax -4.43807 -0.0645103 2.92859
lowerneck -15.4692 -4.09822 -10.546
upperneck 20.4149 -4.37744 5.86997
head 9.35883 -2.23265 3.22364
rclavicle 1.20265e-014 -1.27222e-014
rhumerus -33.848 -4.24161 -81.7926
rradius 45.7481
rwrist -0.153943
rhand -11.2603 13.4763
rfingers 7.12502
rthumb 14.7697 -15.9774
lclavicle 1.20265e-014 -1.27222e-014
lhumerus -34.6982 6.5548 85.7582
lradius 41.4236
lwrist 0.689241
lhand -16.9578 28.3978
lfingers 7.12502
lthumb 9.27607 58.1737
rfemur -13.506 3.86763 20.0652
rtibia 27.803
rfoot -13.5909 -7.73878
rtoes 7.13616
lfemur -15.3318 -2.30201 -16.3832
ltibia 30.1068
lfoot -15.4119 6.86218
ltoes -2.05444
181
root 0.648221 17.567 -15.8725 4.35258 -2.08322 -1.02025
lowerback 7.84037 -0.218082 0.481585
upperback -0.0197086 -0.110021 3.03556
thorax -4.41728 -0.0326639 2.89684
lowerneck -15.5518 -4.10914 -10.506
upperneck 20.3008 -4.38289 5.84203
head 9.33322 -2.23207 3.2042
rclavicle 1.44119e-014 3.4191e-014
rhumerus -33.5452 -3.96111 -81.9093
rradius 46.2464
rwrist -0.371919
rhand -11.1516 13.3774
rfingers 7.12502
rthumb 14.8745 -16.0686
lclavicle 1.44119e-014 3.4191e-014
lhumerus -34.5225 6.30789 85.798
lradius 41.8884
lwrist 0.650593
lhand -17.8987 25.4841
lfingers 7.12502
lthumb 8.36813 55.2984
rfemur -13.6651 3.79496 20.0125
rtibia 28.2381
rfoot -13.7591 -7.6053
rtoes 6.49852
lfemur -15.4996 -2.04656 -16.4462
ltibia 30.5545
lfoot -15.5365 6.74098
ltoes -2.42087
182
root 0.654296 17.5559 -15.8849 4.37581 -1.98834 -1.0371
lowerback 8.05573 -0.263841 0.590374
upperback 0.0139139 -0.156971 3.03096
thorax -4.5015 -0.0580608 2.83822
lowerneck -15.4973 -4.09738 -10.475
upperneck 20.1948 -4.36484 5.79112
head 9.28283 -2.22608 3.18279
rclavicle 2.5842e-015 -7.95139e-016
rhumerus -33.3665 -3.5362 -82.0922
rradius 47.0518
rwrist -1.08524
rhand -10.8038 12.1283
rfingers 7.12502
rthumb 15.2095 -17.2926
lclavicle 2.5842e-015 -7.95139e-016
lhumerus -34.7101 6.00029 85.8889
lradius 42.6505
lwrist 1.36697
lhand -18.1729 25.0246
lfingers 7.12502
lthumb 8.10351 54.8493
rfemur -13.963 3.51045 20.0142
rtibia 28.6871
rfoot -13.9296 -7.46449
rtoes 6.41569
lfemur -15.8385 -1.95731 -16.4458
ltibia 30.9855
lfoot -15.6788 6.68494
ltoes -3.09812
183
root 0.659931 17.5458 -15.8957 4.44942 -1.91905 -1.0417
lowerback 8.18124 -0.248516 0.712114
upperback 0.0801135 -0.125108 3.00438
thorax -4.50477 -0.0455464 2.73857
lowerneck -15.6181 -4.13576 -10.4683
upperneck 20.1924 -4.41399 5.8251
head 9.30922 -2.2427 3.18587
rclavicle -6.06293e-015 -2.3059e-014
rhumerus -33.3113 -3.26056 -82.2179
rradius 48.3199
rwrist -1.99165
rhand -10.0077 10.2966
rfingers 7.12502
rthumb 15.9762 -19.0645
lclavicle -6.06293e-015 -2.3059e-014
lhumerus -34.6352 5.49188 86.0434
lradius 43.3755
lwrist 1.77096
lhand -17.8931 26.4523
lfingers 7.12502
lthumb 8.3735 56.2663
rfemur -14.3447 3.34207 19.9987
rtibia 29.1734
rfoot -14.1794 -7.39215
rtoes 6.73346
lfemur -16.2306 -1.96491 -16.4442
ltibia 31.4668
lfoot -15.8581 6.69282
ltoes -2.81543
184
root 0.666745 17.5281 -15.9103 4.50853 -2.1063 -1.06063
lowerback 8.32884 -0.174754 0.837626
upperback 0.200299 -0.0176881 2.94124
thorax -4.4669 0.00354048 2.58901
lowerneck -15.8255 -4.16117 -10.3137
upperneck 20.1211 -4.45334 5.78065
head 9.32091 -2.24954 3.13652
rclavicle -8.94531e-016 8.74653e-015
rhumerus -33.1247 -3.09144 -82.3792
rradius 49.2938
rwrist -2.34668
rhand -9.45166 9.80102
rfingers 7.12502
rthumb 16.5116 -19.5164
lclavicle -8.94531e-016 8.74653e-015
lhumerus -34.1226 5.20515 86.0186
lradius 43.4569
lwrist 1.955
lhand -19.2065 21.6973
lfingers 7.12502
lthumb 7.10586 51.558
rfemur -14.7832 3.28284 19.9807
rtibia 29.722
rfoot -14.3398 -7.18984
rtoes 7.05569
lfemur -16.6068 -1.78077 -16.4419
ltibia 31.9752
lfoot -16.0281 6.69941
ltoes -2.5193
